<?xml version="1.0" encoding="UTF-8" standalone="no"?>
<svg
   xmlns:dc="http://purl.org/dc/elements/1.1/"
   xmlns:cc="http://creativecommons.org/ns#"
   xmlns:rdf="http://www.w3.org/1999/02/22-rdf-syntax-ns#"
   xmlns:svg="http://www.w3.org/2000/svg"
   xmlns="http://www.w3.org/2000/svg"
   xmlns:xlink="http://www.w3.org/1999/xlink"
   xmlns:sodipodi="http://sodipodi.sourceforge.net/DTD/sodipodi-0.dtd"
   xmlns:inkscape="http://www.inkscape.org/namespaces/inkscape"
   viewBox="0 0 62.847576 60.389403"
   version="1.1"
   id="svg40"
   sodipodi:docname="confluence.svg"
   width="62.847576"
   height="60.389404"
   inkscape:version="0.92.4 5da689c313, 2019-01-14">
  <metadata
     id="metadata44">
    <rdf:RDF>
      <cc:Work
         rdf:about="">
        <dc:format>image/svg+xml</dc:format>
        <dc:type
           rdf:resource="http://purl.org/dc/dcmitype/StillImage" />
      </cc:Work>
    </rdf:RDF>
  </metadata>
  <sodipodi:namedview
     pagecolor="#ffffff"
     bordercolor="#666666"
     borderopacity="1"
     objecttolerance="10"
     gridtolerance="10"
     guidetolerance="10"
     inkscape:pageopacity="0"
     inkscape:pageshadow="2"
     inkscape:window-width="1469"
     inkscape:window-height="791"
     id="namedview42"
     showgrid="false"
     inkscape:zoom="0.69565559"
     inkscape:cx="91.329591"
     inkscape:cy="31.903228"
     inkscape:window-x="55"
     inkscape:window-y="30"
     inkscape:window-maximized="0"
     inkscape:current-layer="Blue" />
  <defs
     id="defs10">
    <style
       id="style2">.cls-1{fill:#253858;}.cls-2{fill:url(#linear-gradient);}.cls-3{fill:url(#linear-gradient-2);}</style>
    <linearGradient
       id="linear-gradient"
       x1="59.68"
       y1="67.650002"
       x2="20.35"
       y2="45.049999"
       gradientUnits="userSpaceOnUse">
      <stop
         offset="0.18"
         stop-color="#0052cc"
         id="stop4" />
      <stop
         offset="1"
         stop-color="#2684ff"
         id="stop6" />
    </linearGradient>
    <linearGradient
       id="linear-gradient-2"
       x1="279.76001"
       y1="-1616.34"
       x2="240.42"
       y2="-1638.95"
       gradientTransform="rotate(180,141.415,-808.355)"
       xlink:href="#linear-gradient" />
    <linearGradient
       inkscape:collect="always"
       xlink:href="#linear-gradient"
       id="linearGradient46"
       gradientUnits="userSpaceOnUse"
       x1="59.68"
       y1="67.650002"
       x2="20.35"
       y2="45.049999" />
  </defs>
  <title
     id="title12">Confluence-blue</title>
  <g
     id="Blue"
     transform="translate(0.04878846,-3.428826)">
    <path
       inkscape:connector-curvature="0"
       style="fill:url(#linearGradient46)"
       id="path34"
       d="m 2.23,49.53 c -0.65,1.06 -1.38,2.29 -2,3.27 a 2,2 0 0 0 0.67,2.72 l 13,8 a 2,2 0 0 0 2.77,-0.68 c 0.52,-0.87 1.19,-2 1.92,-3.21 5.15,-8.5 10.33,-7.46 19.67,-3 l 12.89,6.13 a 2,2 0 0 0 2.69,-1 l 6.19,-14 a 2,2 0 0 0 -1,-2.62 C 56.31,43.86 50.9,41.31 46.03,38.96 28.51,30.45 13.62,31 2.23,49.53 Z"
       class="cls-2" />
    <path
       inkscape:connector-curvature="0"
       style="fill:url(#linear-gradient-2)"
       id="path36"
       d="m 60.52,17.76 c 0.65,-1.06 1.38,-2.29 2,-3.27 a 2,2 0 0 0 -0.67,-2.72 l -13,-8 A 2,2 0 0 0 46,4.43 c -0.52,0.87 -1.19,2 -1.92,3.21 -5.15,8.5 -10.33,7.46 -19.67,3 L 11.56,4.54 a 2,2 0 0 0 -2.69,1 l -6.19,14 a 2,2 0 0 0 1,2.62 c 2.72,1.28 8.13,3.83 13,6.18 17.56,8.5 32.45,7.93 43.84,-10.58 z"
       class="cls-3" />
  </g>
</svg>
