<?xml version="1.0" encoding="UTF-8" standalone="no"?>
<svg
   xmlns:dc="http://purl.org/dc/elements/1.1/"
   xmlns:cc="http://creativecommons.org/ns#"
   xmlns:rdf="http://www.w3.org/1999/02/22-rdf-syntax-ns#"
   xmlns:svg="http://www.w3.org/2000/svg"
   xmlns="http://www.w3.org/2000/svg"
   xmlns:sodipodi="http://sodipodi.sourceforge.net/DTD/sodipodi-0.dtd"
   xmlns:inkscape="http://www.inkscape.org/namespaces/inkscape"
   width="127.90198"
   height="127.9012"
   viewBox="0 0 127.90198 127.9012"
   version="1.1"
   preserveAspectRatio="xMidYMid"
   id="svg8"
   sodipodi:docname="digitalocean.svg"
   inkscape:version="0.92.4 5da689c313, 2019-01-14">
  <metadata
     id="metadata14">
    <rdf:RDF>
      <cc:Work
         rdf:about="">
        <dc:format>image/svg+xml</dc:format>
        <dc:type
           rdf:resource="http://purl.org/dc/dcmitype/StillImage" />
      </cc:Work>
    </rdf:RDF>
  </metadata>
  <defs
     id="defs12" />
  <sodipodi:namedview
     pagecolor="#ffffff"
     bordercolor="#666666"
     borderopacity="1"
     objecttolerance="10"
     gridtolerance="10"
     guidetolerance="10"
     inkscape:pageopacity="0"
     inkscape:pageshadow="2"
     inkscape:window-width="1592"
     inkscape:window-height="756"
     id="namedview10"
     showgrid="false"
     inkscape:zoom="1.2291667"
     inkscape:cx="-28.60072"
     inkscape:cy="32.13706"
     inkscape:window-x="55"
     inkscape:window-y="30"
     inkscape:window-maximized="0"
     inkscape:current-layer="svg8" />
  <path
     style="fill:#0080ff"
     inkscape:connector-curvature="0"
     id="path2"
     d="m 63.951413,103.19612 v 24.70508 c 41.873767,0 74.477137,-40.45307 60.779327,-84.332051 C 118.74484,24.393807 103.50812,9.1570923 84.332783,3.1711887 40.453803,-10.526624 0,22.077478 0,63.951246 h 24.761655 c 0.0036,0 0.0065,-0.0065 0.0065,-0.0065 0.0036,-26.278799 26.010468,-46.595626 53.638888,-36.570289 10.23565,3.714538 18.40009,11.87753 22.116797,22.112453 10.02684,27.61222 -10.259437,53.60881 -36.515897,53.6461 v -24.6253 c 0,0 -0.002,-0.0014 -0.004,-0.0014 h -24.6855 c -0.002,0 -0.004,0.0036 -0.004,0.0036 v 24.68623 z m -24.642,18.97373 H 20.34221 l -0.0044,-0.004 v -18.96938 h 18.975903 v 18.96938 c 0,0 -0.002,0.004 -0.004,0.004 z m -18.9585,-18.97373 H 4.450629 c -0.0065,0 -0.0116,-0.004 -0.0116,-0.004 V 87.298736 c 0,0 0.0051,-0.0116 0.0116,-0.0116 h 15.88868 c 0.0065,0 0.0116,0.0051 0.0116,0.0051 z" />
</svg>
