<?xml version="1.0" encoding="UTF-8" standalone="no"?>
<!-- Created with Inkscape (http://www.inkscape.org/) -->

<svg
   xmlns:dc="http://purl.org/dc/elements/1.1/"
   xmlns:cc="http://creativecommons.org/ns#"
   xmlns:rdf="http://www.w3.org/1999/02/22-rdf-syntax-ns#"
   xmlns:svg="http://www.w3.org/2000/svg"
   xmlns="http://www.w3.org/2000/svg"
   xmlns:sodipodi="http://sodipodi.sourceforge.net/DTD/sodipodi-0.dtd"
   xmlns:inkscape="http://www.inkscape.org/namespaces/inkscape"
   width="42.606766mm"
   height="41.554672mm"
   viewBox="0 0 42.606766 41.554672"
   version="1.1"
   id="svg218"
   inkscape:version="0.92.4 5da689c313, 2019-01-14"
   sodipodi:docname="github.svg">
  <defs
     id="defs212" />
  <sodipodi:namedview
     id="base"
     pagecolor="#ffffff"
     bordercolor="#666666"
     borderopacity="1.0"
     inkscape:pageopacity="0.0"
     inkscape:pageshadow="2"
     inkscape:zoom="0.35"
     inkscape:cx="-339.48331"
     inkscape:cy="-144.32862"
     inkscape:document-units="mm"
     inkscape:current-layer="layer1"
     showgrid="false"
     inkscape:window-width="2505"
     inkscape:window-height="1016"
     inkscape:window-x="55"
     inkscape:window-y="30"
     inkscape:window-maximized="1" />
  <metadata
     id="metadata215">
    <rdf:RDF>
      <cc:Work
         rdf:about="">
        <dc:format>image/svg+xml</dc:format>
        <dc:type
           rdf:resource="http://purl.org/dc/dcmitype/StillImage" />
        <dc:title></dc:title>
      </cc:Work>
    </rdf:RDF>
  </metadata>
  <g
     inkscape:label="Layer 1"
     inkscape:groupmode="layer"
     id="layer1"
     transform="translate(-76.214484,-69.091713)">
    <path
       d="m 97.518024,69.091713 c -11.76408,0 -21.30354,9.537347 -21.30354,21.303191 0,9.412463 6.10411,17.397946 14.56866,20.214946 1.06469,0.19716 1.45556,-0.46221 1.45556,-1.02489 0,-0.508 -0.0198,-2.18617 -0.0289,-3.96628 -5.92666,1.28869 -7.17726,-2.51355 -7.17726,-2.51355 -0.96908,-2.46238 -2.36537,-3.11714 -2.36537,-3.11714 -1.93287,-1.32221 0.1457,-1.295048 0.1457,-1.295048 2.13924,0.149931 3.26566,2.195338 3.26566,2.195338 1.90006,3.25684 4.98369,2.31528 6.19936,1.77094 0.19121,-1.37654 0.74331,-2.31704 1.35255,-2.848678 -4.7318,-0.538692 -9.70597,-2.365375 -9.70597,-10.528299 0,-2.325864 0.8322,-4.226278 2.19498,-5.718175 -0.22119,-0.536928 -0.95038,-2.703336 0.20638,-5.637741 0,0 1.78893,-0.572558 5.85999,2.183694 1.69933,-0.472017 3.52178,-0.708731 5.33223,-0.716844 1.81046,0.0081 3.634316,0.244827 5.336826,0.716844 4.06611,-2.756252 5.85258,-2.183694 5.85258,-2.183694 1.15958,2.934405 0.43004,5.100813 0.20884,5.637741 1.36596,1.491897 2.19252,3.392311 2.19252,5.718175 0,8.182328 -4.98369,9.983964 -9.7275,10.511365 0.76412,0.661112 1.44498,1.957562 1.44498,3.945112 0,2.8501 -0.0247,5.14421 -0.0247,5.84624 0,0.56691 0.38347,1.23116 1.46333,1.022 8.45996,-2.82011 14.55632,-10.802768 14.55632,-20.212056 -1e-5,-11.765844 -9.53807,-21.303191 -21.303206,-21.303191"
       style="fill:#ffffff;fill-opacity:1;fill-rule:evenodd;stroke:none;stroke-width:0.03527778"
       id="path108"
       inkscape:connector-curvature="0" />
    <path
       d="m 84.283214,99.678605 c -0.0469,0.106185 -0.21343,0.137583 -0.36512,0.06491 -0.15452,-0.0695 -0.2413,-0.213783 -0.19121,-0.319969 0.0459,-0.109008 0.21273,-0.138996 0.36689,-0.06668 0.15487,0.06985 0.24307,0.215546 0.18944,0.321734 v 0"
       style="fill:#ffffff;fill-opacity:1;fill-rule:nonzero;stroke:none;stroke-width:0.03527778"
       id="path110"
       inkscape:connector-curvature="0" />
    <path
       d="m 85.146114,100.64098 c -0.1016,0.0942 -0.30022,0.0504 -0.43498,-0.0984 -0.13934,-0.14852 -0.16545,-0.34713 -0.0624,-0.44273 0.10478,-0.0942 0.29739,-0.0501 0.43709,0.0984 0.13935,0.15028 0.16651,0.34748 0.0603,0.44273 v 0"
       style="fill:#ffffff;fill-opacity:1;fill-rule:nonzero;stroke:none;stroke-width:0.03527778"
       id="path112"
       inkscape:connector-curvature="0" />
    <path
       d="m 85.986074,101.86794 c -0.13053,0.0907 -0.34396,0.006 -0.4759,-0.18379 -0.13052,-0.18944 -0.13052,-0.41663 0.003,-0.50765 0.1323,-0.091 0.34255,-0.009 0.47625,0.17886 0.13018,0.19226 0.13018,0.4198 -0.003,0.51258 v 0"
       style="fill:#ffffff;fill-opacity:1;fill-rule:nonzero;stroke:none;stroke-width:0.03527778"
       id="path114"
       inkscape:connector-curvature="0" />
    <path
       d="m 87.136834,103.05328 c -0.11677,0.12876 -0.36547,0.0942 -0.54751,-0.0815 -0.18626,-0.17181 -0.23812,-0.41557 -0.121,-0.54434 0.11818,-0.12912 0.3683,-0.0928 0.55174,0.0815 0.18486,0.17145 0.2413,0.41698 0.11677,0.54434 v 0"
       style="fill:#ffffff;fill-opacity:1;fill-rule:nonzero;stroke:none;stroke-width:0.03527778"
       id="path116"
       inkscape:connector-curvature="0" />
    <path
       d="m 88.724334,103.74155 c -0.0515,0.16686 -0.29104,0.24271 -0.53234,0.1718 -0.24095,-0.073 -0.39864,-0.26847 -0.34995,-0.43709 0.0501,-0.16793 0.29068,-0.24695 0.53375,-0.1711 0.24059,0.0727 0.39864,0.2667 0.34854,0.43639 v 0"
       style="fill:#ffffff;fill-opacity:1;fill-rule:nonzero;stroke:none;stroke-width:0.03527778"
       id="path118"
       inkscape:connector-curvature="0" />
    <path
       d="m 90.467764,103.86925 c 0.006,0.17568 -0.19861,0.32138 -0.45191,0.32421 -0.2547,0.006 -0.46073,-0.13618 -0.46355,-0.30904 0,-0.17745 0.20003,-0.32173 0.45473,-0.32596 0.2533,-0.005 0.46073,0.13617 0.46073,0.31079 v 0"
       style="fill:#ffffff;fill-opacity:1;fill-rule:nonzero;stroke:none;stroke-width:0.03527778"
       id="path120"
       inkscape:connector-curvature="0" />
    <path
       d="m 92.090194,103.59303 c 0.0303,0.17145 -0.1457,0.34748 -0.39723,0.39405 -0.2473,0.0455 -0.47625,-0.0603 -0.50765,-0.23036 -0.0307,-0.17569 0.14852,-0.35172 0.39546,-0.39723 0.25189,-0.0437 0.47731,0.0593 0.50942,0.23354 v 0"
       style="fill:#ffffff;fill-opacity:1;fill-rule:nonzero;stroke:none;stroke-width:0.03527778"
       id="path122"
       inkscape:connector-curvature="0" />
  </g>
</svg>
